<svg width="136" height="136" viewBox="0 0 136 136" fill="none" xmlns="http://www.w3.org/2000/svg">
<g clip-path="url(#clip0_95_244)">
<path d="M130.764 40.2023C123.834 35.2682 116.792 30.5079 109.714 25.7823C108.386 24.8789 80.6999 5.83749 77.0132 3.3357C70.5247 -1.07717 65.4741 -1.11192 59.0593 3.26621C49.9902 9.48593 40.9579 15.6709 31.9257 21.8559C23.1146 27.9019 14.3035 33.8784 5.52935 39.9591C0.994783 43.1211 -0.848535 47.4645 0.331189 52.6418C1.47405 57.5411 4.79202 60.8421 10.027 61.8845C12.534 62.371 15.2621 61.954 18.1008 61.954V108.48C18.1008 114.804 21.6768 118.175 28.3865 118.175H66.1376C64.663 116.02 63.4464 113.727 62.5616 111.295H27.6123C25.7321 111.295 25.4003 110.183 25.4003 108.724C25.4372 101.392 25.4372 94.0603 25.4372 86.7634C25.4372 77.3469 25.4372 67.9652 25.4003 58.5488C25.4003 57.2631 25.769 56.464 26.875 55.7343C40.0731 46.7348 53.2713 37.7353 66.3957 28.6316C67.7229 27.7281 68.4971 27.9019 69.7137 28.7358C82.7275 37.7005 95.7782 46.6653 108.866 55.5605C110.009 56.3597 110.562 57.1589 110.525 58.5488V69.4246C113.142 70.5365 115.612 71.9264 117.824 73.5595V61.4675C122.248 62.7184 126.156 62.5794 129.843 60.4599C137.622 55.9775 138.138 45.4839 130.764 40.2023ZM128.479 51.4604C127.336 55.2131 122.875 56.5682 119.262 54.1707C114.506 51.0087 109.787 47.7077 105.032 44.4762C93.8611 36.7971 82.6538 29.118 71.4833 21.4389C68.4234 19.3541 67.5754 19.3541 64.5893 21.4389C48.9579 32.141 33.3266 42.8431 17.6952 53.5105C16.3312 54.4486 14.7091 55.0046 13.1975 55.769C10.58 55.352 8.47865 53.9622 7.66759 51.9121C6.85653 49.862 7.40953 47.4992 9.25285 46.0398C10.8012 44.7889 12.4971 43.677 14.1561 42.5304C30.6353 31.2376 47.1515 19.9795 63.6307 8.68675C66.9118 6.42819 68.9763 6.3587 72.1469 8.51301C89.9902 20.7092 107.834 32.9402 125.64 45.1712C128.221 46.9433 129.179 49.0976 128.479 51.4604Z" fill="#B97727" fill-opacity="0.3"/>
<path d="M0 132.108L3.9447 128.39V132.108H0Z" fill="white"/>
<path d="M120.295 118.21C124.166 121.858 128.037 125.506 131.945 129.19C132.461 129.676 132.977 130.162 133.493 130.649C134.968 132.178 135.041 133.915 133.677 135.131C132.35 136.347 130.47 136.278 128.922 134.819C124.829 130.996 120.737 127.139 116.682 123.283C116.387 123.005 116.092 122.761 115.723 122.449C107.871 128.182 99.023 130.232 89.364 128.356C81.6589 126.862 75.4285 123.005 70.7465 117.028C61.3455 105.075 62.8939 88.3618 74.3225 78.1114C85.8617 67.7568 103.558 67.2008 115.908 76.6868C127.963 85.9642 131.908 104.067 120.369 118.21H120.295ZM120.848 99.5156C120.848 86.4159 109.714 75.9571 95.8156 75.9223C82.1382 75.9223 70.9677 86.4854 70.9677 99.4808C70.9677 112.268 82.1382 122.9 95.7418 122.935C109.677 123.005 120.848 112.546 120.848 99.4808V99.5156Z" fill="#B97727" fill-opacity="0.3"/>
</g>
<defs>
<clipPath id="clip0_95_244">
<rect width="136" height="136" fill="white"/>
</clipPath>
</defs>
</svg>
