<svg width="128" height="128" viewBox="0 0 128 128" fill="none" xmlns="http://www.w3.org/2000/svg">
<path d="M39.0486 48.6742C37.6146 48.6742 36.2473 48.9276 35.0133 48.638C32.4121 48.0588 30.7446 46.1403 30.1777 43.3167C29.5774 40.3484 30.5112 37.8507 32.7789 36.0407C37.1477 32.5294 41.5831 29.0905 45.9852 25.6154C50.5207 22.0317 55.0229 18.4842 59.5584 14.9005C62.7599 12.3665 65.2944 12.3665 68.5293 14.9005C70.3635 16.3484 84.2035 27.3167 84.8704 27.8235C88.4055 30.5385 91.9405 33.2896 95.3755 36.1131C99.0772 39.1538 98.8104 45.1991 94.9086 47.7692C93.0744 49 91.1068 49.0724 88.9057 48.3484V49.8688C88.9057 58.3394 88.9057 66.81 88.9057 75.2805C88.9057 79.1538 87.2049 81 83.7032 81C70.5303 81 57.3907 81 44.2177 81C40.8828 81 39.0819 79.0452 39.0819 75.4253C39.0819 66.9186 39.0819 58.4118 39.0819 49.905C39.0819 49.4706 39.0819 49 39.0819 48.638L39.0486 48.6742ZM83.5698 77.0905C85.1039 77.0905 85.2039 76.9819 85.2039 75.3529C85.2039 65.7964 85.2039 56.276 85.2039 46.7195C85.2039 45.9231 84.9371 45.4525 84.3702 44.9819C77.8338 39.8416 71.2973 34.7014 64.7942 29.5249C64.1939 29.0543 63.7937 28.9457 63.1267 29.4887C56.5569 34.7014 49.9871 39.914 43.384 45.0905C42.8171 45.5249 42.617 45.9955 42.6503 46.7195C42.6503 52.1131 42.6503 57.543 42.6503 62.9367C42.6503 67.1357 42.6503 71.371 42.6503 75.5701C42.6503 76.4027 42.8171 77.0543 43.7508 77.0543C47.4526 77.0543 80.0348 77.0543 83.5365 77.0543L83.5698 77.0905ZM36.5808 45.1267C37.3478 44.6923 38.1482 44.3665 38.8152 43.8235C46.6522 37.6697 54.4559 31.5158 62.2597 25.362C63.7604 24.1674 64.1939 24.1674 65.6946 25.362C71.2973 29.7783 76.9 34.1946 82.4693 38.6109C84.8371 40.4932 87.2049 42.3756 89.5727 44.1855C91.3735 45.5611 93.6079 44.7647 94.1749 42.629C94.5417 41.2896 94.0415 40.0226 92.7742 39.009C83.87 31.9864 74.9324 24.9276 66.0281 17.905C64.4607 16.6742 63.4269 16.7104 61.7928 18.0136C53.5555 24.5294 45.3183 31.009 37.081 37.5249C36.2473 38.1765 35.4135 38.8281 34.6131 39.5158C33.7127 40.3484 33.4126 41.724 33.8461 42.9186C34.2463 44.1131 35.2801 44.8733 36.6141 45.1267H36.5808Z" fill="#B97727" fill-opacity="0.3"/>
<path d="M123.354 22.3551V76.1091C123.354 86.503 115.357 94.9371 105.501 94.9371H59.8036C59.3058 94.9371 58.8412 95.112 58.4762 95.427L24.7262 123.039C23.1996 124.264 21.0094 123.039 21.2085 120.974L23.3987 97.4568C23.5315 96.0919 22.5027 94.9371 21.2085 94.9371C11.3523 94.9371 3.35449 86.503 3.35449 76.1091V22.3551C3.35449 11.9612 11.3523 3.52716 21.2085 3.52716H105.501C115.357 3.52716 123.354 11.9612 123.354 22.3551Z" stroke="#B97727" stroke-opacity="0.3" stroke-width="5" stroke-miterlimit="10"/>
</svg>
