<svg width="141" height="125" viewBox="0 0 141 125" fill="none" xmlns="http://www.w3.org/2000/svg">
<g clip-path="url(#clip0_95_282)">
<path d="M18.6677 65.508C15.7082 65.508 12.9004 65.9489 10.3204 65.4346C4.93252 64.3324 1.5177 60.842 0.379426 55.6616C-0.834732 50.1873 1.06239 45.5948 5.72931 42.2514C14.7596 35.8218 23.8279 29.5025 32.8961 23.1097C42.192 16.5699 51.5259 9.99334 60.8218 3.45356C67.4238 -1.17573 72.6219 -1.17573 79.2997 3.52704C83.094 6.17235 111.589 26.3061 112.955 27.2613C120.24 32.2948 127.487 37.2914 134.62 42.5086C142.246 48.0931 141.677 59.152 133.671 63.9282C129.877 66.1694 125.855 66.3163 121.302 64.9937V67.8227C121.302 83.3639 121.302 98.9418 121.302 114.483C121.302 121.574 117.811 124.991 110.564 124.991C83.4734 124.991 56.3446 124.991 29.2536 124.991C22.3861 124.991 18.7056 121.427 18.7056 114.74C18.7056 99.1255 18.7056 83.4741 18.7056 67.8594C18.7056 67.0144 18.7056 66.2061 18.7056 65.5448L18.6677 65.508ZM110.337 117.679C113.486 117.679 113.714 117.459 113.751 114.483C113.751 96.9578 113.751 79.4327 113.789 61.9075C113.789 60.4379 113.258 59.5929 112.044 58.7478C98.5745 49.3423 85.1429 39.9 71.7492 30.3843C70.4971 29.5025 69.7003 29.3188 68.3344 30.274C54.8269 39.8633 41.2435 49.4158 27.6601 58.8948C26.5218 59.7031 26.1044 60.5481 26.1044 61.9075C26.1803 71.8641 26.1044 81.784 26.1044 91.7407C26.1044 99.4929 26.1044 107.208 26.1044 114.961C26.1044 116.504 26.4459 117.679 28.381 117.679C35.9695 117.679 103.09 117.679 110.299 117.679H110.337ZM13.5834 58.9683C15.139 58.1967 16.8085 57.5721 18.2124 56.5801C34.3379 45.3008 50.3876 33.9848 66.4752 22.6688C69.5865 20.5011 70.4212 20.5011 73.5704 22.6688C85.1049 30.7884 96.6015 38.908 108.136 46.9909C112.993 50.4078 117.849 53.8981 122.782 57.2415C126.5 59.7766 131.091 58.3069 132.229 54.339C132.95 51.8774 132.002 49.5627 129.346 47.689C110.982 34.7564 92.6175 21.8237 74.2534 8.92787C71.0283 6.64997 68.8656 6.72345 65.4887 9.11158C48.5284 21.0522 31.5302 32.9928 14.5699 44.9334C12.8625 46.1459 11.1171 47.2848 9.52356 48.6075C7.62644 50.1506 7.09524 52.6489 7.92998 54.8166C8.76471 56.9843 10.8895 58.4172 13.5834 58.8948V58.9683ZM59.2282 117.606L103.431 19.9867L59.2282 117.606Z" fill="#B97727" fill-opacity="0.3"/>
<path d="M65.3592 107.395V102.58H57.7913V92.6198C58.1735 92.6198 58.5939 92.6198 59.0144 92.6198C62.8365 92.6198 66.6205 92.6198 70.4427 92.6198C73.3093 92.6198 75.5644 90.6351 75.5644 87.9888C75.5644 87.3272 75.2204 86.4084 74.6853 86.0041C73.08 84.8647 71.36 83.8723 69.64 82.9167C66.888 81.3731 63.9068 80.0867 61.3077 78.3593C57.1415 75.566 54.6571 71.7435 55.1922 66.6715C55.8037 60.9379 58.9762 56.895 64.4036 54.4692C65.2063 54.1017 65.4356 53.6974 65.4356 52.9256C65.3974 51.3819 65.4356 49.875 65.4356 48.2578H75.6026V53.0726H83.247V63.0329C82.8647 63.0329 82.4443 63.0329 82.0239 63.0329C78.2017 63.0329 74.4177 63.0329 70.5956 63.0329C67.7289 63.0329 65.4738 65.0176 65.4738 67.6639C65.4738 68.3254 65.8178 69.281 66.3529 69.6486C68.1111 70.8615 69.984 71.9273 71.8187 72.9564C74.3031 74.3531 76.9786 75.4557 79.3483 77.0361C90.4326 84.2766 85.9607 96.773 77.5901 100.742C75.9848 101.514 75.4115 102.323 75.6026 103.94C75.7173 105.079 75.6026 106.219 75.6026 107.432H65.3592V107.395Z" fill="#B97727" fill-opacity="0.3"/>
</g>
<defs>
<clipPath id="clip0_95_282">
<rect width="141" height="125" fill="white"/>
</clipPath>
</defs>
</svg>
