<svg width="40" height="40" viewBox="0 0 40 40" fill="none" xmlns="http://www.w3.org/2000/svg">
<g clip-path="url(#clip0_40_57)">
<path d="M11.7924 15.321C11.3417 15.321 10.9119 15.3981 10.5241 15.31C9.70649 15.1336 9.18238 14.5494 9.00419 13.6897C8.81551 12.7859 9.10901 12.0253 9.8218 11.4742C11.195 10.405 12.5891 9.35792 13.9727 8.29977C15.3983 7.20856 16.8134 6.12838 18.239 5.03717C19.2453 4.26561 20.0419 4.26561 21.0587 5.03717C21.6352 5.47806 25.9853 8.81782 26.195 8.97214C27.3061 9.79881 28.4172 10.6365 29.4968 11.4962C30.6604 12.4221 30.5765 14.2628 29.3501 15.0454C28.7736 15.4202 28.1551 15.4422 27.4633 15.2218V15.6847C27.4633 18.264 27.4633 20.8432 27.4633 23.4224C27.4633 24.6018 26.9287 25.1639 25.8281 25.1639C21.6876 25.1639 17.5576 25.1639 13.4172 25.1639C12.369 25.1639 11.8029 24.5687 11.8029 23.4665C11.8029 20.8762 11.8029 18.286 11.8029 15.6958C11.8029 15.5635 11.8029 15.4202 11.8029 15.31L11.7924 15.321ZM25.7862 23.9735C26.2683 23.9735 26.2998 23.9404 26.2998 23.4444C26.2998 20.5345 26.2998 17.6357 26.2998 14.7258C26.2998 14.4833 26.2159 14.34 26.0377 14.1967C23.9832 12.6315 21.9287 11.0664 19.8847 9.49018C19.696 9.34689 19.5702 9.31383 19.3606 9.47916C17.2956 11.0664 15.2306 12.6536 13.1551 14.2298C12.9769 14.3621 12.914 14.5053 12.9245 14.7258C12.9245 16.3681 12.9245 18.0215 12.9245 19.6638C12.9245 20.9424 12.9245 22.232 12.9245 23.5106C12.9245 23.7641 12.9769 23.9625 13.2704 23.9625C14.434 23.9625 24.675 23.9625 25.7757 23.9625L25.7862 23.9735ZM11.0168 14.2408C11.2579 14.1085 11.5094 14.0093 11.7191 13.844C14.1824 11.9702 16.6352 10.0964 19.088 8.22262C19.5597 7.85888 19.696 7.85888 20.1677 8.22262C21.9287 9.56734 23.6897 10.9121 25.4402 12.2568C26.1845 12.8299 26.9287 13.4031 27.6729 13.9542C28.239 14.3731 28.9413 14.1306 29.1195 13.4803C29.2348 13.0724 29.0776 12.6867 28.6792 12.378C25.8805 10.2397 23.0713 8.09035 20.2725 5.95202C19.7799 5.57726 19.4549 5.58828 18.9413 5.98509C16.3522 7.9691 13.7631 9.9421 11.174 11.9261C10.9119 12.1245 10.6499 12.3229 10.3983 12.5323C10.1153 12.7859 10.021 13.2047 10.1572 13.5684C10.283 13.9322 10.608 14.1636 11.0272 14.2408H11.0168Z" fill="#B97727"/>
<path d="M38.9518 7.03218V23.9625C38.9518 27.2361 36.4256 29.8925 33.3124 29.8925H18.8784C18.7212 29.8925 18.5744 29.9476 18.4591 30.0468L7.79874 38.7434C7.31656 39.1292 6.62474 38.7434 6.68763 38.0931L7.37945 30.6861C7.42138 30.2562 7.09644 29.8925 6.68763 29.8925C3.57442 29.8925 1.04822 27.2361 1.04822 23.9625V7.03218C1.04822 3.75855 3.57442 1.10217 6.68763 1.10217H33.3124C36.4256 1.10217 38.9518 3.75855 38.9518 7.03218Z" stroke="#B97727" stroke-width="2" stroke-miterlimit="10"/>
</g>
<defs>
<clipPath id="clip0_40_57">
<rect width="40" height="40" fill="white"/>
</clipPath>
</defs>
</svg>
