<svg width="45" height="40" viewBox="0 0 45 40" fill="none" xmlns="http://www.w3.org/2000/svg">
<g clip-path="url(#clip0_40_65)">
<path d="M6.00162 20.9703C5.05014 20.9703 4.14746 21.1115 3.31796 20.9468C1.58579 20.594 0.487927 19.4767 0.121975 17.8183C-0.268375 16.0659 0.341546 14.5957 1.84195 13.5255C4.74518 11.4672 7.6606 9.44431 10.576 7.39785C13.5646 5.30435 16.5655 3.19909 19.5541 1.10559C21.6766 -0.376332 23.3478 -0.376332 25.4947 1.12911C26.7145 1.97592 35.8756 8.42108 36.3147 8.72687C38.6568 10.3382 40.9867 11.9377 43.28 13.6078C45.7319 15.3955 45.5489 18.9356 42.975 20.4646C41.7552 21.182 40.4622 21.2291 38.9984 20.8057V21.7113C38.9984 26.6863 38.9984 31.6731 38.9984 36.6481C38.9984 38.918 37.8761 40.0118 35.5462 40.0118C26.8365 40.0118 18.1147 40.0118 9.40498 40.0118C7.19706 40.0118 6.01381 38.8709 6.01381 36.7304C6.01381 31.7319 6.01381 26.7216 6.01381 21.723C6.01381 21.4525 6.01381 21.1938 6.01381 20.9821L6.00162 20.9703ZM35.473 37.6713C36.4855 37.6713 36.5587 37.6007 36.5709 36.6481C36.5709 31.038 36.5709 25.4278 36.5831 19.8177C36.5831 19.3473 36.4123 19.0768 36.0219 18.8063C31.6915 15.7954 27.3733 12.7727 23.0672 9.72658C22.6647 9.44431 22.4085 9.3855 21.9694 9.6913C17.6267 12.761 13.2597 15.8189 8.89264 18.8533C8.52669 19.1121 8.39251 19.3826 8.39251 19.8177C8.4169 23.005 8.39251 26.1806 8.39251 29.3679C8.39251 31.8495 8.39251 34.3193 8.39251 36.801C8.39251 37.2949 8.50229 37.6713 9.12441 37.6713C11.5641 37.6713 33.1431 37.6713 35.4608 37.6713H35.473ZM4.36703 18.8768C4.86716 18.6298 5.40389 18.4299 5.85524 18.1123C11.0396 14.5016 16.1995 10.8792 21.3716 7.25672C22.3719 6.5628 22.6403 6.5628 23.6527 7.25672C27.3611 9.85595 31.0572 12.4552 34.7655 15.0427C36.3269 16.1365 37.8883 17.2538 39.4741 18.3241C40.6695 19.1356 42.1456 18.6651 42.5115 17.3949C42.7433 16.6069 42.4383 15.8659 41.5844 15.2661C35.6804 11.1262 29.7764 6.98621 23.8723 2.85801C22.8354 2.12881 22.1401 2.15234 21.0545 2.91682C15.6018 6.73922 10.1369 10.5616 4.68419 14.384C4.13526 14.7722 3.57413 15.1368 3.0618 15.5602C2.45187 16.0541 2.2811 16.8539 2.54946 17.5478C2.81783 18.2417 3.50094 18.7004 4.36703 18.8533V18.8768ZM19.0417 37.6478L33.2529 6.39815L19.0417 37.6478Z" fill="#B97727"/>
<path d="M20.8593 34.3664V32.8256H18.444V29.6383C18.566 29.6383 18.7002 29.6383 18.8344 29.6383C20.0542 29.6383 21.2619 29.6383 22.4817 29.6383C23.3966 29.6383 24.1163 29.0032 24.1163 28.1564C24.1163 27.9447 24.0065 27.6507 23.8357 27.5213C23.3234 27.1567 22.7745 26.8392 22.2255 26.5334C21.3472 26.0394 20.3958 25.6277 19.5663 25.075C18.2366 24.1811 17.4437 22.9579 17.6145 21.3349C17.8097 19.5001 18.8222 18.2064 20.5543 17.4302C20.8105 17.3125 20.8837 17.1832 20.8837 16.9362C20.8715 16.4422 20.8837 15.96 20.8837 15.4425H24.1285V16.9832H26.5682V20.1705C26.4462 20.1705 26.312 20.1705 26.1778 20.1705C24.958 20.1705 23.7503 20.1705 22.5305 20.1705C21.6156 20.1705 20.8959 20.8056 20.8959 21.6524C20.8959 21.8641 21.0057 22.1699 21.1765 22.2876C21.7376 22.6757 22.3353 23.0167 22.9208 23.3461C23.7137 23.793 24.5676 24.1458 25.3239 24.6516C28.8615 26.9685 27.4343 30.9674 24.7628 32.2376C24.2505 32.4846 24.0675 32.7433 24.1285 33.2608C24.1651 33.6254 24.1285 33.99 24.1285 34.3781H20.8593V34.3664Z" fill="#B97727"/>
</g>
<defs>
<clipPath id="clip0_40_65">
<rect width="45" height="40" fill="white"/>
</clipPath>
</defs>
</svg>
