<svg width="38" height="42" viewBox="0 0 38 42" fill="none" xmlns="http://www.w3.org/2000/svg">
<g clip-path="url(#clip0_60_80)">
<path d="M31.4498 27.0157C32.2767 27.2866 33.0844 27.4664 33.8207 27.8062C36.7514 29.1584 38.4217 32.4562 37.9071 35.7664C37.4043 38.9829 34.8548 41.5271 31.7239 41.9261C31.3736 41.9704 31.0162 41.9975 30.6635 41.9975C20.768 42.0025 10.8748 42 0.979308 42C0.17394 42 0 41.8177 0 40.9804C0 27.6634 0 14.344 0 1.02457C0 0.187181 0.17394 0.00738873 0.979308 0.00738873C8.0084 0.00738873 15.0375 0.00985164 22.0642 0C22.4216 0 22.679 0.115757 22.9268 0.374362C25.6431 3.19439 28.3642 6.00704 31.0924 8.81229C31.3569 9.08321 31.457 9.36645 31.4546 9.74573C31.4451 15.3612 31.4475 20.9766 31.4475 26.592C31.4475 26.7595 31.4475 26.9245 31.4475 27.0157H31.4498ZM1.32481 40.6109H26.5581C24.2563 38.6726 23.1627 36.2269 23.7274 33.2296C24.4017 29.6436 26.6891 27.693 30.106 27.0969V10.1669C27.5636 10.1669 25.0522 10.1669 22.5431 10.1669C21.8188 10.1669 21.6234 9.96247 21.6234 9.21375C21.6234 6.75822 21.6234 4.30517 21.6234 1.84965V1.38662H1.32481V40.6085V40.6109ZM30.8494 28.454C27.5898 28.4417 24.9211 31.141 24.8997 34.4709C24.8782 37.8574 27.4993 40.6282 30.7422 40.6429C34.0351 40.6577 36.6871 37.9387 36.6943 34.5423C36.7014 31.2223 34.0566 28.4663 30.8518 28.454H30.8494ZM28.998 8.79259C26.9846 6.71143 24.9473 4.60564 22.9554 2.54665V8.79259H28.998Z" fill="#B97727"/>
<path d="M28.998 8.79259H22.9554V2.54419C24.9474 4.60318 26.9846 6.70897 28.998 8.79013V8.79259Z" fill="white"/>
<path d="M18.0374 14.2307C16.0168 14.2307 13.9962 14.2307 11.9781 14.2332C11.6588 14.2332 11.3776 14.179 11.218 13.8563C11.013 13.45 11.2465 12.9697 11.6945 12.8909C11.8279 12.8663 11.9661 12.8786 12.102 12.8786C16.0454 12.8786 19.9912 12.8786 23.9347 12.8786C24.0038 12.8786 24.0705 12.8786 24.1396 12.8786C24.5971 12.8909 24.8806 13.1396 24.8949 13.5337C24.9068 13.9425 24.6114 14.2282 24.1396 14.2307C22.1047 14.2356 20.0722 14.2307 18.0374 14.2307Z" fill="#B97727"/>
<path d="M18.0183 20.3264C16.0383 20.3264 14.0606 20.3264 12.0805 20.3264C11.9566 20.3264 11.8327 20.3387 11.7136 20.3165C11.3609 20.2476 11.1489 20.0259 11.1489 19.6491C11.1489 19.2747 11.3609 19.0506 11.7136 18.9841C11.8327 18.9619 11.959 18.9742 12.0805 18.9742C16.0383 18.9742 19.996 18.9742 23.9561 18.9742C24.08 18.9742 24.2039 18.9619 24.3231 18.9841C24.6757 19.0506 24.8878 19.2772 24.8901 19.6515C24.8901 20.0259 24.6757 20.25 24.3231 20.319C24.2039 20.3412 24.0776 20.3288 23.9561 20.3288C21.9761 20.3288 19.9984 20.3288 18.0183 20.3288V20.3264Z" fill="#B97727"/>
<path d="M18.0183 26.4221C16.0383 26.4221 14.0606 26.4221 12.0805 26.4221C11.9566 26.4221 11.8327 26.4344 11.7136 26.4122C11.3609 26.3433 11.1465 26.1216 11.1465 25.7448C11.1465 25.3704 11.3585 25.1463 11.7112 25.0773C11.8303 25.0552 11.9566 25.0675 12.0781 25.0675C16.0359 25.0675 19.9936 25.0675 23.9537 25.0675C24.0776 25.0675 24.2015 25.0552 24.3207 25.0773C24.6733 25.1438 24.8878 25.3704 24.8878 25.7423C24.8878 26.1167 24.6733 26.3408 24.3231 26.4098C24.2039 26.432 24.0776 26.4196 23.9561 26.4196C21.9761 26.4196 19.9984 26.4196 18.0183 26.4196V26.4221Z" fill="#B97727"/>
<path d="M5.8973 13.5337C5.8973 13.1101 5.89015 12.6865 5.8973 12.2629C5.90922 11.7875 6.14987 11.5289 6.60974 11.524C7.44132 11.5141 8.27528 11.5141 9.10686 11.524C9.56673 11.5289 9.81692 11.7851 9.82168 12.2604C9.83121 13.12 9.83121 13.982 9.82168 14.8415C9.81692 15.3169 9.56673 15.5755 9.10924 15.5804C8.27766 15.5903 7.4437 15.5903 6.61213 15.5804C6.15226 15.5755 5.90683 15.3169 5.8973 14.844C5.88777 14.4081 5.8973 13.9697 5.8973 13.5313V13.5337ZM7.23879 12.8909V14.2086H8.49211V12.8909H7.23879Z" fill="#B97727"/>
<path d="M7.83445 21.681C7.43892 21.681 7.04338 21.6859 6.64785 21.681C6.157 21.6712 5.90443 21.4273 5.89967 20.9347C5.89013 20.0752 5.89013 19.2132 5.89967 18.3536C5.90443 17.8807 6.157 17.6271 6.61925 17.6221C7.45083 17.6123 8.28479 17.6123 9.11637 17.6221C9.57386 17.6271 9.81928 17.8881 9.82404 18.3659C9.83358 19.2255 9.83358 20.0875 9.82404 20.9471C9.81928 21.4175 9.56671 21.6687 9.10446 21.6785C8.68271 21.6884 8.25858 21.6785 7.83445 21.6785V21.681ZM8.50162 19.0038H7.22685V20.3018H8.50162V19.0038Z" fill="#B97727"/>
<path d="M9.82882 25.7079C9.82882 26.1462 9.83597 26.5822 9.82882 27.0206C9.81929 27.5181 9.57387 27.7718 9.08779 27.7767C8.26812 27.7841 7.45084 27.7865 6.63118 27.7767C6.14986 27.7718 5.90682 27.5132 5.90206 27.0107C5.89491 26.1635 5.89491 25.3187 5.90206 24.4715C5.90682 23.974 6.15463 23.7227 6.64071 23.7178C7.46037 23.7104 8.27765 23.7104 9.09732 23.7178C9.57863 23.7227 9.81929 23.9789 9.82882 24.4813C9.83597 24.8902 9.82882 25.299 9.82882 25.7079ZM7.22925 25.0872V26.395H8.48734V25.0872H7.22925Z" fill="#B97727"/>
<path d="M7.86306 33.8724C7.43893 33.8724 7.01719 33.8823 6.59306 33.87C6.15702 33.8577 5.90683 33.604 5.90206 33.1533C5.89015 32.2789 5.89015 31.4046 5.90206 30.5303C5.90683 30.0796 6.15702 29.8209 6.59306 29.8136C7.43893 29.8012 8.28481 29.8012 9.13068 29.8136C9.56672 29.8185 9.81691 30.0795 9.82406 30.5278C9.83597 31.4021 9.83597 32.2765 9.82406 33.1508C9.81929 33.6015 9.56672 33.8552 9.13068 33.8675C8.70893 33.8798 8.28481 33.87 7.86068 33.87L7.86306 33.8724ZM7.22449 32.4957H8.49211V31.1928H7.22449V32.4957Z" fill="#B97727"/>
<path d="M15.6928 32.5178C14.4514 32.5178 13.2099 32.5178 11.9661 32.5178C11.4467 32.5178 11.1465 32.2715 11.1417 31.8503C11.137 31.4267 11.4372 31.1656 11.9495 31.1656C14.4609 31.1656 16.9723 31.1656 19.4837 31.1656C20.0055 31.1656 20.3034 31.4119 20.3081 31.8331C20.3129 32.2666 20.0055 32.5178 19.4599 32.5202C18.2042 32.5202 16.9485 32.5202 15.6928 32.5202V32.5178Z" fill="#B97727"/>
<path d="M30.1608 35.6605C30.4562 35.3329 30.7088 35.0398 30.978 34.7615C31.9883 33.7123 33.001 32.6681 34.0137 31.6213C34.0899 31.5425 34.1638 31.4563 34.2472 31.3824C34.5545 31.109 34.9024 31.1041 35.1669 31.3627C35.4433 31.6336 35.4624 32.0326 35.1669 32.343C33.661 33.9143 32.1456 35.4807 30.6254 37.0373C30.3109 37.3599 29.9678 37.3476 29.6461 37.0225C28.7907 36.1531 27.9424 35.2763 27.1013 34.3921C26.7987 34.0744 26.8011 33.6951 27.0656 33.4119C27.3396 33.1212 27.7161 33.1262 28.0425 33.4587C28.7311 34.1606 29.4078 34.8748 30.1631 35.6605H30.1608Z" fill="#B97727"/>
<path d="M7.23877 12.8909H8.49209V14.2085H7.23877V12.8909Z" fill="white"/>
<path d="M8.50164 19.0038V20.3017H7.22687V19.0038H8.50164Z" fill="white"/>
<path d="M7.22925 25.0872H8.48734V26.395H7.22925V25.0872Z" fill="white"/>
<path d="M7.22449 32.4956V31.1927H8.49211V32.4956H7.22449Z" fill="white"/>
</g>
<defs>
<clipPath id="clip0_60_80">
<rect width="38" height="42" fill="white"/>
</clipPath>
</defs>
</svg>
