<svg width="40" height="40" viewBox="0 0 40 40" fill="none" xmlns="http://www.w3.org/2000/svg">
<g clip-path="url(#clip0_40_61)">
<path d="M38.4603 11.8242C36.4218 10.373 34.3508 8.9729 32.2689 7.58301C31.8786 7.3173 23.7354 1.71689 22.6511 0.981071C20.7428 -0.316834 19.2573 -0.327054 17.3706 0.960631C14.7032 2.78996 12.0466 4.60907 9.39008 6.42818C6.79859 8.20642 4.20711 9.96421 1.62646 11.7527C0.292766 12.6827 -0.249386 13.9601 0.0975915 15.4829C0.433726 16.9238 1.4096 17.8947 2.94931 18.2013C3.68664 18.3444 4.48903 18.2217 5.32394 18.2217V31.906C5.32394 33.7659 6.37572 34.7573 8.34915 34.7573H19.4524C19.0187 34.1236 18.6609 33.4491 18.4007 32.7338H8.12145C7.56845 32.7338 7.47086 32.4067 7.47086 31.9775C7.48171 29.8211 7.48171 27.6648 7.48171 25.5186C7.48171 22.7491 7.48171 19.9898 7.47086 17.2202C7.47086 16.8421 7.57929 16.607 7.90459 16.3924C11.7864 13.7455 15.6682 11.0986 19.5283 8.42103C19.9187 8.15532 20.1464 8.20642 20.5042 8.45169C24.3318 11.0884 28.1702 13.7251 32.0195 16.3413C32.3557 16.5764 32.5183 16.8114 32.5075 17.2202V20.419C33.2773 20.746 34.0038 21.1548 34.6544 21.6351V18.0787C35.9555 18.4466 37.1049 18.4057 38.1892 17.7823C40.4771 16.464 40.6289 13.3776 38.4603 11.8242ZM37.788 15.1354C37.4519 16.2391 36.1399 16.6377 35.0773 15.9325C33.6785 15.0025 32.2906 14.0317 30.8918 13.0812C27.6064 10.8227 24.3101 8.56411 21.0247 6.30555C20.1247 5.69236 19.8753 5.69236 18.997 6.30555C14.3996 9.45322 9.80212 12.6009 5.20467 15.7384C4.80347 16.0143 4.32638 16.1778 3.88181 16.4026C3.11196 16.28 2.4939 15.8712 2.25536 15.2682C2.01681 14.6653 2.17946 13.9703 2.72161 13.5411C3.17702 13.1732 3.6758 12.8462 4.16373 12.5089C9.01058 9.18751 13.8683 5.87632 18.7151 2.55491C19.6801 1.89063 20.2873 1.87019 21.2198 2.50381C26.4679 6.09093 31.7159 9.68828 36.9531 13.2856C37.7121 13.8068 37.994 14.4404 37.788 15.1354Z" fill="#B97727"/>
<path d="M0 38.8554L1.16021 37.7618V38.8554H0Z" fill="white"/>
<path d="M35.3809 34.7675C36.5194 35.8406 37.6579 36.9136 38.8073 37.9969C38.9591 38.14 39.1109 38.2831 39.2627 38.4262C39.6964 38.8758 39.7181 39.3868 39.3169 39.7445C38.9265 40.1022 38.3735 40.0818 37.9181 39.6525C36.7146 38.5284 35.511 37.394 34.3182 36.2596C34.2315 36.1778 34.1448 36.1063 34.0363 36.0143C31.7268 37.7006 29.1244 38.3035 26.2835 37.7517C24.0173 37.3122 22.1849 36.1778 20.8078 34.42C18.0428 30.9044 18.4982 25.9888 21.8596 22.9739C25.2535 19.9285 30.4581 19.7649 34.0905 22.5549C37.6362 25.2836 38.7964 30.6081 35.4025 34.7675H35.3809ZM35.5435 29.2693C35.5435 25.4164 32.2689 22.3403 28.1811 22.3301C24.1583 22.3301 20.8729 25.4369 20.8729 29.2591C20.8729 33.0199 24.1583 36.1472 28.1594 36.1574C32.2581 36.1778 35.5435 33.1017 35.5435 29.2591V29.2693Z" fill="#B97727"/>
</g>
<defs>
<clipPath id="clip0_40_61">
<rect width="40" height="40" fill="white"/>
</clipPath>
</defs>
</svg>
