<svg width="121" height="134" viewBox="0 0 121 134" fill="none" xmlns="http://www.w3.org/2000/svg">
<g clip-path="url(#clip0_95_253)">
<path d="M100.143 86.1928C102.776 87.0572 105.348 87.6308 107.692 88.7152C117.024 93.0291 122.343 103.551 120.704 114.112C119.103 124.374 110.985 132.491 101.015 133.764C99.9001 133.906 98.7621 133.992 97.6392 133.992C66.1297 134.008 34.6278 134 3.11832 134C0.553863 134 0 133.419 0 130.747C0 88.2594 0 45.7641 0 3.26887C0 0.597197 0.553863 0.0235736 3.11832 0.0235736C25.5004 0.0235736 47.8826 0.0314314 70.2571 0C71.3952 0 72.2146 0.369319 73.0036 1.19439C81.653 10.1916 90.3176 19.1653 99.0048 28.1154C99.847 28.9798 100.166 29.8834 100.158 31.0935C100.128 49.0094 100.135 66.9254 100.135 84.8413C100.135 85.3756 100.135 85.9021 100.135 86.1928H100.143ZM4.21846 129.568H84.5665C77.2373 123.384 73.7548 115.581 75.5529 106.018C77.7001 94.5771 84.9838 88.3537 95.8638 86.4521V32.4372C87.7683 32.4372 79.7714 32.4372 71.7821 32.4372C69.4756 32.4372 68.8535 31.785 68.8535 29.3962C68.8535 21.562 68.8535 13.7355 68.8535 5.90125V4.42397H4.21846V129.56V129.568ZM98.2309 90.7818C87.8517 90.7425 79.3541 99.3547 79.2858 109.979C79.2175 120.783 87.5634 129.623 97.8895 129.67C108.375 129.717 116.819 121.042 116.842 110.206C116.865 99.614 108.443 90.8211 98.2385 90.7818H98.2309ZM92.3357 28.0525C85.9246 21.4127 79.4376 14.6942 73.0947 8.12502V28.0525H92.3357Z" fill="#B97727" fill-opacity="0.3"/>
<path d="M92.3358 28.0526H73.0947V8.11719C79.4376 14.6864 85.9246 21.4048 92.3358 28.0447V28.0526Z" fill="white"/>
<path d="M57.4346 45.4027C51.0007 45.4027 44.5668 45.4027 38.1405 45.4106C37.1238 45.4106 36.2285 45.2377 35.7202 44.2083C35.0677 42.9118 35.8113 41.3795 37.2376 41.128C37.6625 41.0495 38.1026 41.0887 38.535 41.0887C51.0918 41.0887 63.6561 41.0887 76.2129 41.0887C76.4329 41.0887 76.6453 41.0887 76.8654 41.0887C78.3221 41.128 79.225 41.9217 79.2705 43.1789C79.3084 44.4833 78.3676 45.3948 76.8654 45.4027C70.3859 45.4184 63.9141 45.4027 57.4346 45.4027Z" fill="#B97727" fill-opacity="0.3"/>
<path d="M57.3738 64.8508C51.0689 64.8508 44.7715 64.8508 38.4666 64.8508C38.072 64.8508 37.6775 64.8901 37.2982 64.8194C36.1753 64.5994 35.5 63.8922 35.5 62.6899C35.5 61.4955 36.1753 60.7805 37.2982 60.5683C37.6775 60.4976 38.0796 60.5369 38.4666 60.5369C51.0688 60.5369 63.6711 60.5369 76.281 60.5369C76.6755 60.5369 77.07 60.4976 77.4494 60.5683C78.5723 60.7805 79.2476 61.5034 79.2551 62.6978C79.2551 63.8922 78.5723 64.6073 77.4494 64.8273C77.07 64.898 76.6679 64.8587 76.281 64.8587C69.976 64.8587 63.6787 64.8587 57.3738 64.8587V64.8508Z" fill="#B97727" fill-opacity="0.3"/>
<path d="M57.3745 84.2991C51.0696 84.2991 44.7723 84.2991 38.4673 84.2991C38.0728 84.2991 37.6783 84.3384 37.2989 84.2676C36.176 84.0476 35.4932 83.3404 35.4932 82.1382C35.4932 80.9438 36.1684 80.2287 37.2913 80.0087C37.6707 79.938 38.0728 79.9773 38.4597 79.9773C51.062 79.9773 63.6643 79.9773 76.2741 79.9773C76.6687 79.9773 77.0632 79.938 77.4426 80.0087C78.5655 80.2208 79.2483 80.9438 79.2483 82.1303C79.2483 83.3247 78.5655 84.0398 77.4502 84.2598C77.0708 84.3305 76.6687 84.2912 76.2817 84.2912C69.9768 84.2912 63.6795 84.2912 57.3745 84.2912V84.2991Z" fill="#B97727" fill-opacity="0.3"/>
<path d="M18.7781 43.1789C18.7781 41.8274 18.7554 40.4758 18.7781 39.1243C18.8161 37.6077 19.5824 36.7826 21.0467 36.7669C23.6946 36.7355 26.3501 36.7355 28.998 36.7669C30.4624 36.7826 31.259 37.5999 31.2742 39.1164C31.3045 41.8588 31.3045 44.6091 31.2742 47.3514C31.259 48.868 30.4624 49.6931 29.0056 49.7088C26.3577 49.7402 23.7022 49.7402 21.0543 49.7088C19.59 49.6931 18.8085 48.868 18.7781 47.3593C18.7478 45.9685 18.7781 44.5698 18.7781 43.1711V43.1789ZM23.0497 41.128V45.332H27.0406V41.128H23.0497Z" fill="#B97727" fill-opacity="0.3"/>
<path d="M24.9462 69.1727C23.6868 69.1727 22.4273 69.1884 21.1678 69.1727C19.6049 69.1413 18.8006 68.3634 18.7855 66.7918C18.7551 64.0494 18.7551 61.2991 18.7855 58.5568C18.8006 57.048 19.6049 56.2387 21.0768 56.223C23.7247 56.1915 26.3802 56.1915 29.0281 56.223C30.4849 56.2387 31.2663 57.0716 31.2815 58.596C31.3119 61.3384 31.3119 64.0887 31.2815 66.8311C31.2663 68.3319 30.4621 69.1334 28.9902 69.1649C27.6473 69.1963 26.2967 69.1649 24.9462 69.1649V69.1727ZM27.0706 60.6312H23.0115V64.7723H27.0706V60.6312Z" fill="#B97727" fill-opacity="0.3"/>
<path d="M31.2971 82.0203C31.2971 83.419 31.3198 84.8098 31.2971 86.2085C31.2667 87.7958 30.4852 88.6051 28.9375 88.6209C26.3275 88.6444 23.7251 88.6523 21.1151 88.6209C19.5825 88.6051 18.8086 87.7801 18.7934 86.1771C18.7707 83.474 18.7707 80.7787 18.7934 78.0756C18.8086 76.4883 19.5977 75.6868 21.1455 75.6711C23.7554 75.6475 26.3578 75.6475 28.9678 75.6711C30.5004 75.6868 31.2667 76.5041 31.2971 78.1071C31.3198 79.4115 31.2971 80.7159 31.2971 82.0203ZM23.0195 80.0401V84.2126H27.0255V80.0401H23.0195Z" fill="#B97727" fill-opacity="0.3"/>
<path d="M25.0373 108.069C23.6868 108.069 22.3439 108.1 20.9934 108.061C19.6049 108.022 18.8083 107.213 18.7931 105.775C18.7552 102.985 18.7552 100.195 18.7931 97.4059C18.8083 95.968 19.6049 95.1429 20.9934 95.1193C23.6868 95.08 26.3803 95.08 29.0737 95.1193C30.4621 95.135 31.2588 95.968 31.2816 97.3981C31.3195 100.188 31.3195 102.977 31.2816 105.767C31.2664 107.205 30.4621 108.014 29.0737 108.053C27.7308 108.093 26.3803 108.061 25.0297 108.061L25.0373 108.069ZM23.004 103.677H27.0403V99.5197H23.004V103.677Z" fill="#B97727" fill-opacity="0.3"/>
<path d="M49.9692 103.747C46.0163 103.747 42.0634 103.747 38.1029 103.747C36.4489 103.747 35.4929 102.961 35.4777 101.618C35.4625 100.266 36.4185 99.4333 38.0498 99.4333C46.0466 99.4333 54.0435 99.4333 62.0404 99.4333C63.7019 99.4333 64.6503 100.219 64.6655 101.563C64.6807 102.946 63.7019 103.747 61.9645 103.755C57.9661 103.755 53.9676 103.755 49.9692 103.755V103.747Z" fill="#B97727" fill-opacity="0.3"/>
<path d="M96.0381 113.774C96.9789 112.729 97.7831 111.794 98.6405 110.906C101.857 107.558 105.082 104.227 108.307 100.887C108.549 100.636 108.785 100.361 109.05 100.125C110.029 99.2526 111.137 99.2369 111.979 100.062C112.859 100.926 112.92 102.199 111.979 103.189C107.184 108.203 102.358 113.2 97.5176 118.166C96.5161 119.196 95.4235 119.157 94.3993 118.119C91.6755 115.345 88.9744 112.548 86.2962 109.727C85.3326 108.713 85.3402 107.503 86.1824 106.6C87.0549 105.672 88.2537 105.688 89.2931 106.749C91.4858 108.988 93.6405 111.267 96.0457 113.774H96.0381Z" fill="#B97727" fill-opacity="0.3"/>
<path d="M23.0498 41.128H27.0407V45.3319H23.0498V41.128Z" fill="white"/>
<path d="M27.0708 60.6312V64.7723H23.0117V60.6312H27.0708Z" fill="white"/>
<path d="M23.0195 80.0401H27.0256V84.2126H23.0195V80.0401Z" fill="white"/>
<path d="M23.0039 103.677V99.5197H27.0403V103.677H23.0039Z" fill="white"/>
</g>
<defs>
<clipPath id="clip0_95_253">
<rect width="121" height="134" fill="white"/>
</clipPath>
</defs>
</svg>
